<?xml version="1.0" encoding="UTF-8"?>
<svg width="74px" height="81px" viewBox="0 0 74 81" version="1.1" xmlns="http://www.w3.org/2000/svg" xmlns:xlink="http://www.w3.org/1999/xlink">
    <title>icon-fluids</title>
    <defs>
        <path d="M5.4793,0.9105 L13.229,8.6595 C13.8346,9.2655 14.1695,10.0725 14.1695,10.9295 C14.1695,11.7865 13.8356,12.5925 13.229,13.1985 C12.6244,13.8055 11.8177,14.1395 10.9596,14.1395 C10.1025,14.1395 9.2958,13.8055 8.6902,13.1985 L0.9405,5.4485 C0.3349,4.8435 0,4.0365 0,3.1795 C0,2.3225 0.3338,1.5155 0.9405,0.9105 C2.1527,-0.3035 4.267,-0.3035 5.4793,0.9105 Z M3.2099,1.0405 C2.6385,1.0405 2.1014,1.2635 1.6969,1.6675 C1.2925,2.0725 1.0699,2.6095 1.0699,3.1805 C1.0699,3.7515 1.2925,4.2885 1.6969,4.6935 L9.4467,12.4435 C10.2566,13.2525 11.6668,13.2495 12.4725,12.4435 C12.8769,12.0385 13.0995,11.5015 13.0995,10.9295 C13.0995,10.3565 12.8769,9.8205 12.4725,9.4165 L4.7228,1.6665 C4.3183,1.2635 3.7812,1.0405 3.2099,1.0405 Z" id="path-1"></path>
        <path d="M12.8395,0 C13.4301,0 13.9094,0.48 13.9094,1.07 L13.9094,5.35 C13.9094,5.941 13.4301,6.42 12.8395,6.42 L1.0699,6.42 C0.4793,6.42 0,5.941 0,5.35 L0,1.07 C0,0.48 0.4793,0 1.0699,0 L12.8395,0 Z" id="path-3"></path>
        <path d="M13.3745,0 C14.2593,0 14.9794,0.72 14.9794,1.605 L14.9794,5.885 C14.9794,6.77 14.2593,7.49 13.3745,7.49 L1.6049,7.49 C0.7201,7.49 0,6.77 0,5.885 L0,1.605 C0,0.72 0.7201,0 1.6049,0 L13.3745,0 Z M13.3745,1.07 L1.6049,1.07 C1.3107,1.07 1.07,1.31 1.07,1.605 L1.07,5.885 C1.07,6.18 1.3107,6.42 1.6049,6.42 L13.3745,6.42 C13.6687,6.42 13.9095,6.18 13.9095,5.885 L13.9095,1.605 C13.9095,1.31 13.6687,1.07 13.3745,1.07 Z" id="path-5"></path>
        <path d="M16.0494,0 C19.0036,0 21.3992,2.396 21.3992,5.35 L21.3992,27.284 C21.3992,28.762 20.2019,29.959 18.7243,29.959 L2.6749,29.959 C1.1973,29.959 0,28.762 0,27.284 L0,5.35 C0,2.396 2.3957,0 5.3498,0 L16.0494,0 Z" id="path-7"></path>
        <path d="M16.5844,0 C19.8285,0 22.4692,2.64 22.4692,5.885 L22.4692,27.819 C22.4692,29.589 21.029,31.029 19.2593,31.029 L3.2099,31.029 C1.4402,31.029 0,29.589 0,27.819 L0,5.885 C0,2.64 2.6407,0 5.8848,0 L16.5844,0 Z M16.5844,1.07 L5.8848,1.07 C3.2303,1.07 1.07,3.231 1.07,5.885 L1.07,27.819 C1.07,29 2.0298,29.959 3.2099,29.959 L19.2593,29.959 C20.4395,29.959 21.3992,29 21.3992,27.819 L21.3992,5.885 C21.3992,3.231 19.239,1.07 16.5844,1.07 Z" id="path-9"></path>
        <path d="M32.5588,0 C34.1306,0 35.6082,0.612 36.721,1.724 L47.4955,12.499 C48.6061,13.609 49.2181,15.087 49.2181,16.659 L49.2181,48.682 C49.2181,51.927 46.5774,54.567 43.3333,54.567 L5.8848,54.567 C2.6407,54.567 0,51.927 0,48.682 L0,3.744 C0,2.859 0.7201,2.139 1.6049,2.139 L13.3745,2.139 C14.2593,2.139 14.9794,2.859 14.9794,3.744 L14.9794,4.814 C14.9794,5.109 14.7397,5.349 14.4444,5.349 C14.1491,5.349 13.9095,5.109 13.9095,4.814 L13.9095,3.744 C13.9095,3.449 13.6687,3.209 13.3745,3.209 L1.6049,3.209 C1.3107,3.209 1.07,3.449 1.07,3.744 L1.07,48.682 C1.07,51.337 3.2302,53.497 5.8848,53.497 L43.3333,53.497 C45.9879,53.497 48.1481,51.337 48.1481,48.682 L48.1481,16.659 C48.1481,15.373 47.6474,14.164 46.7379,13.255 L35.9635,2.479 C35.0529,1.57 33.8439,1.069 32.5578,1.069 L24.257,1.069 C23.6204,1.069 23.0212,1.349 22.6125,1.839 L18.0652,7.297 C17.9635,7.419 17.8137,7.49 17.6543,7.49 L6.9547,7.49 C6.6594,7.49 6.4197,7.25 6.4197,6.955 C6.4197,6.66 6.6594,6.42 6.9547,6.42 L17.4039,6.42 L21.7918,1.155 C22.4039,0.421 23.3026,0 24.2581,0 L32.5588,0 Z" id="path-11"></path>
        <path d="M9.0946,0 C9.3899,0 9.6296,0.24 9.6296,0.535 L9.6296,4.815 C9.6296,5.111 9.3899,5.35 9.0946,5.35 L1.6049,5.35 C0.7201,5.35 0,4.63 0,3.745 L0,1.605 C0,0.721 0.7201,0 1.6049,0 L9.0946,0 Z M8.5596,1.07 L1.6049,1.07 C1.3107,1.07 1.0699,1.31 1.0699,1.605 L1.0699,3.745 C1.0699,4.041 1.3107,4.28 1.6049,4.28 L8.5596,4.28 L8.5596,1.07 Z" id="path-13"></path>
        <path d="M9.0946,0 C9.3899,0 9.6296,0.239 9.6296,0.535 L9.6296,4.815 C9.6296,5.11 9.3899,5.35 9.0946,5.35 L1.6049,5.35 C0.7201,5.35 0,4.63 0,3.745 L0,1.605 C0,0.72 0.7201,0 1.6049,0 L9.0946,0 Z M8.5596,1.07 L1.6049,1.07 C1.3107,1.07 1.0699,1.309 1.0699,1.605 L1.0699,3.745 C1.0699,4.04 1.3107,4.28 1.6049,4.28 L8.5596,4.28 L8.5596,1.07 Z" id="path-15"></path>
        <path d="M9.0946,0 C9.3899,0 9.6296,0.24 9.6296,0.535 L9.6296,4.815 C9.6296,5.11 9.3899,5.35 9.0946,5.35 L1.6049,5.35 C0.7201,5.35 0,4.63 0,3.745 L0,1.605 C0,0.72 0.7201,0 1.6049,0 L9.0946,0 Z M8.5596,1.07 L1.6049,1.07 C1.3107,1.07 1.0699,1.31 1.0699,1.605 L1.0699,3.745 C1.0699,4.04 1.3107,4.28 1.6049,4.28 L8.5596,4.28 L8.5596,1.07 Z" id="path-17"></path>
        <path d="M5.35026893,0 L9.95966893,7.822 C11.1718689,9.87906667 10.8703624,12.4790456 9.24737071,14.2037615 L9.07476893,14.379 L8.88851008,14.5512223 C6.8692513,16.3325926 3.83128655,16.3325926 1.81202777,14.5512223 L1.62576893,14.379 L1.45317648,14.2037615 C-0.113768745,12.5385185 -0.44895996,10.0573348 0.620861033,8.03667852 L0.740868926,7.822 L5.35026893,0 Z" id="path-19"></path>
        <path d="M6.3499652,0.24525 L10.9593652,8.06625 C12.3005996,10.3418437 11.9669348,13.1964775 10.1646569,15.098235 L9.9856652,15.27925 C8.8365652,16.39325 7.3631652,16.94925 5.8887652,16.94925 C4.4143652,16.94925 2.9410652,16.39325 1.7929652,15.27925 C-0.165034801,13.38225 -0.565234801,10.41625 0.819365199,8.06625 L5.4286652,0.24525 C5.6212652,-0.08175 6.1583652,-0.08175 6.3499652,0.24525 Z M5.8887652,1.57025 L1.7405652,8.61025 C0.607465199,10.53125 0.935965199,12.95825 2.5365652,14.51025 C4.35878395,16.2753125 7.17710172,16.3314092 9.06157666,14.6758126 L9.2409652,14.51025 C10.8416652,12.95825 11.1700652,10.53125 10.0369652,8.61025 L5.8887652,1.57025 Z" id="path-21"></path>
        <path d="M4.8148,0 C5.1101,0 5.3498,0.24 5.3498,0.535 C5.3498,0.83 5.1112,1.07 4.8148,1.07 L0.535,1.07 C0.2397,1.07 0,0.83 0,0.535 C0,0.24 0.2397,0 0.535,0 L4.8148,0 Z" id="path-23"></path>
        <path d="M0.535,0 C0.8303,0 1.07,0.24 1.07,0.535 L1.07,4.815 C1.07,5.11 0.8314,5.35 0.535,5.35 C0.2397,5.35 0,5.11 0,4.815 L0,0.535 C0,0.24 0.2397,0 0.535,0 Z" id="path-25"></path>
        <path d="M4.8148,0 C5.1101,0 5.3498,0.239 5.3498,0.535 C5.3498,0.83 5.1112,1.07 4.8148,1.07 L0.535,1.07 C0.2397,1.07 0,0.83 0,0.535 C0,0.239 0.2397,0 0.535,0 L4.8148,0 Z" id="path-27"></path>
        <path d="M0.535,0 C0.8303,0 1.07,0.239 1.07,0.535 L1.07,4.815 C1.07,5.11 0.8314,5.35 0.535,5.35 C0.2397,5.35 0,5.11 0,4.815 L0,0.535 C0,0.239 0.2397,0 0.535,0 Z" id="path-29"></path>
        <path d="M0.535,0 C0.8303,0 1.07,0.24 1.07,0.535 L1.07,1.588 C1.07,1.884 0.8303,2.123 0.535,2.123 C0.2397,2.123 0,1.883 0,1.588 L0,0.535 C0,0.24 0.2397,0 0.535,0 Z" id="path-31"></path>
        <path d="M0.535,0 C0.8303,0 1.07,0.239 1.07,0.535 L1.07,11.51 C1.07,11.806 0.8303,12.045 0.535,12.045 C0.2397,12.045 0,11.806 0,11.51 L0,0.535 C0,0.239 0.2397,0 0.535,0 Z" id="path-33"></path>
        <path d="M0.535,0 C0.8303,0 1.07,0.24 1.07,0.535 L1.07,1.605 C1.07,1.901 0.8303,2.14 0.535,2.14 C0.2397,2.14 0,1.901 0,1.605 L0,0.535 C0,0.24 0.2397,0 0.535,0 Z" id="path-35"></path>
        <path d="M0.535,0 C0.8303,0 1.07,0.24 1.07,0.535 L1.07,11.235 C1.07,11.53 0.8303,11.769 0.535,11.769 C0.2397,11.769 0,11.53 0,11.235 L0,0.535 C0,0.24 0.2397,0 0.535,0 Z" id="path-37"></path>
        <path d="M0.535,0 C0.8303,0 1.07,0.24 1.07,0.535 L1.07,6.955 C1.07,7.25 0.8303,7.49 0.535,7.49 C0.2397,7.49 0,7.25 0,6.955 L0,0.535 C0,0.24 0.2397,0 0.535,0 Z" id="path-39"></path>
        <path d="M0.535,0 C0.8303,0 1.07,0.24 1.07,0.535 L1.07,6.955 C1.07,7.25 0.8303,7.49 0.535,7.49 C0.2397,7.49 0,7.25 0,6.955 L0,0.535 C0,0.24 0.2397,0 0.535,0 Z" id="path-41"></path>
    </defs>
    <g id="icon-fluids" stroke="none" stroke-width="1" fill="none" fill-rule="evenodd">
        <g id="Group-16" transform="translate(7.000000, 8.000000)">
            <g id="Group-1023" transform="translate(35.075400, 15.784500)">
                <mask id="mask-2" fill="white">
                    <use xlink:href="#path-1"></use>
                </mask>
                <g id="Clip-1022"></g>
                <polygon id="Fill-1021" fill="#263238" mask="url(#mask-2)" points="-1 -1.3035 15.1695 -1.3035 15.1695 15.1395 -1 15.1395"></polygon>
            </g>
            <g id="Group-1026" transform="translate(5.884800, 4.547000)">
                <mask id="mask-4" fill="white">
                    <use xlink:href="#path-3"></use>
                </mask>
                <g id="Clip-1025"></g>
                <polygon id="Fill-1024" fill="#0F74FF" mask="url(#mask-4)" points="-1 -1 14.9094 -1 14.9094 7.42 -1 7.42"></polygon>
            </g>
            <g id="Group-1029" transform="translate(5.349800, 4.012000)">
                <mask id="mask-6" fill="white">
                    <use xlink:href="#path-5"></use>
                </mask>
                <g id="Clip-1028"></g>
                <polygon id="Fill-1027" fill="#263238" mask="url(#mask-6)" points="-1 -1 15.9794 -1 15.9794 8.49 -1 8.49"></polygon>
            </g>
            <g id="Group-1032" transform="translate(12.304500, 28.086000)">
                <mask id="mask-8" fill="white">
                    <use xlink:href="#path-7"></use>
                </mask>
                <g id="Clip-1031"></g>
                <polygon id="Fill-1030" fill="#0F74FF" mask="url(#mask-8)" points="-1 -1 22.3992 -1 22.3992 30.959 -1 30.959"></polygon>
            </g>
            <g id="Group-1035" transform="translate(11.769500, 27.551000)">
                <mask id="mask-10" fill="white">
                    <use xlink:href="#path-9"></use>
                </mask>
                <g id="Clip-1034"></g>
                <polygon id="Fill-1033" fill="#263238" mask="url(#mask-10)" points="-1 -1 23.4692 -1 23.4692 32.029 -1 32.029"></polygon>
            </g>
            <g id="Group-1038" transform="translate(5.349800, 10.433000)">
                <mask id="mask-12" fill="white">
                    <use xlink:href="#path-11"></use>
                </mask>
                <g id="Clip-1037"></g>
                <polygon id="Fill-1036" fill="#263238" mask="url(#mask-12)" points="-1 -1 50.2181 -1 50.2181 55.567 -1 55.567"></polygon>
            </g>
            <g id="Group-1041" transform="translate(44.938300, 53.230000)">
                <mask id="mask-14" fill="white">
                    <use xlink:href="#path-13"></use>
                </mask>
                <g id="Clip-1040"></g>
                <polygon id="Fill-1039" fill="#263238" mask="url(#mask-14)" points="-1 -1 10.6296 -1 10.6296 6.35 -1 6.35"></polygon>
            </g>
            <g id="Group-1044" transform="translate(44.938300, 43.601000)">
                <mask id="mask-16" fill="white">
                    <use xlink:href="#path-15"></use>
                </mask>
                <g id="Clip-1043"></g>
                <polygon id="Fill-1042" fill="#263238" mask="url(#mask-16)" points="-1 -1 10.6296 -1 10.6296 6.35 -1 6.35"></polygon>
            </g>
            <g id="Group-1047" transform="translate(44.938300, 33.971000)">
                <mask id="mask-18" fill="white">
                    <use xlink:href="#path-17"></use>
                </mask>
                <g id="Clip-1046"></g>
                <polygon id="Fill-1045" fill="#263238" mask="url(#mask-18)" points="-1 -1 10.6296 -1 10.6296 6.35 -1 6.35"></polygon>
            </g>
            <g id="Group-1050" transform="translate(17.653831, 35.122000)">
                <mask id="mask-20" fill="white">
                    <use xlink:href="#path-19"></use>
                </mask>
                <g id="Clip-1049"></g>
                <polygon id="Fill-1048" fill="#FFFFFF" mask="url(#mask-20)" points="-1.51313107 -1 12.2136689 -1 12.2136689 17.39 -1.51313107 17.39"></polygon>
            </g>
            <g id="Group-1053" transform="translate(17.115335, 34.605750)">
                <mask id="mask-22" fill="white">
                    <use xlink:href="#path-21"></use>
                </mask>
                <g id="Clip-1052"></g>
                <polygon id="Fill-1051" fill="#263238" mask="url(#mask-22)" points="-1.5652348 -1.08175 13.3438652 -1.08175 13.3438652 17.94925 -1.5652348 17.94925"></polygon>
            </g>
            <g id="Group-1056" transform="translate(53.930200, 2.140000)">
                <mask id="mask-24" fill="white">
                    <use xlink:href="#path-23"></use>
                </mask>
                <g id="Clip-1055"></g>
                <polygon id="Fill-1054" fill="#263238" mask="url(#mask-24)" points="-1 -1 6.3498 -1 6.3498 2.07 -1 2.07"></polygon>
            </g>
            <g id="Group-1059" transform="translate(56.070100, 0.000000)">
                <mask id="mask-26" fill="white">
                    <use xlink:href="#path-25"></use>
                </mask>
                <g id="Clip-1058"></g>
                <polygon id="Fill-1057" fill="#263238" mask="url(#mask-26)" points="-1 -1 2.07 -1 2.07 6.35 -1 6.35"></polygon>
            </g>
            <g id="Group-1062" transform="translate(46.440500, 9.630000)">
                <mask id="mask-28" fill="white">
                    <use xlink:href="#path-27"></use>
                </mask>
                <g id="Clip-1061"></g>
                <polygon id="Fill-1060" fill="#263238" mask="url(#mask-28)" points="-1 -1 6.3498 -1 6.3498 2.07 -1 2.07"></polygon>
            </g>
            <g id="Group-1065" transform="translate(48.580400, 7.490000)">
                <mask id="mask-30" fill="white">
                    <use xlink:href="#path-29"></use>
                </mask>
                <g id="Clip-1064"></g>
                <polygon id="Fill-1063" fill="#263238" mask="url(#mask-30)" points="-1 -1 2.07 -1 2.07 6.35 -1 6.35"></polygon>
            </g>
            <g id="Group-1068" transform="translate(58.847700, 44.445000)">
                <mask id="mask-32" fill="white">
                    <use xlink:href="#path-31"></use>
                </mask>
                <g id="Clip-1067"></g>
                <polygon id="Fill-1066" fill="#263238" mask="url(#mask-32)" points="-1 -1 2.07 -1 2.07 3.123 -1 3.123"></polygon>
            </g>
            <g id="Group-1071" transform="translate(58.847700, 47.605000)">
                <mask id="mask-34" fill="white">
                    <use xlink:href="#path-33"></use>
                </mask>
                <g id="Clip-1070"></g>
                <polygon id="Fill-1069" fill="#263238" mask="url(#mask-34)" points="-1 -1 2.07 -1 2.07 13.045 -1 13.045"></polygon>
            </g>
            <g id="Group-1074" transform="translate(0.000000, 28.897000)">
                <mask id="mask-36" fill="white">
                    <use xlink:href="#path-35"></use>
                </mask>
                <g id="Clip-1073"></g>
                <polygon id="Fill-1072" fill="#263238" mask="url(#mask-36)" points="-1 -1 2.07 -1 2.07 3.14 -1 3.14"></polygon>
            </g>
            <g id="Group-1077" transform="translate(0.000000, 16.058000)">
                <mask id="mask-38" fill="white">
                    <use xlink:href="#path-37"></use>
                </mask>
                <g id="Clip-1076"></g>
                <polygon id="Fill-1075" fill="#263238" mask="url(#mask-38)" points="-1 -1 2.07 -1 2.07 12.769 -1 12.769"></polygon>
            </g>
            <g id="Group-1080" transform="translate(9.629600, 4.012000)">
                <mask id="mask-40" fill="white">
                    <use xlink:href="#path-39"></use>
                </mask>
                <g id="Clip-1079"></g>
                <polygon id="Fill-1078" fill="#263238" mask="url(#mask-40)" points="-1 -1 2.07 -1 2.07 8.49 -1 8.49"></polygon>
            </g>
            <g id="Group-1083" transform="translate(14.979400, 4.012000)">
                <mask id="mask-42" fill="white">
                    <use xlink:href="#path-41"></use>
                </mask>
                <g id="Clip-1082"></g>
                <polygon id="Fill-1081" fill="#263238" mask="url(#mask-42)" points="-1 -1 2.07 -1 2.07 8.49 -1 8.49"></polygon>
            </g>
        </g>
    </g>
</svg>